HIERARCHY
ROOT Hips
{
  OFFSET 0 92.2951 0
  CHANNELS 6 Xposition Yposition Zposition Zrotation Xrotation Yrotation
  JOINT LeftUpLeg
  {
    OFFSET 8.98111 0 0
    CHANNELS 6 Xposition Yposition Zposition Zrotation Xrotation Yrotation
    JOINT LeftLeg
    {
      OFFSET -0.87507 -44.0267 -0.646895
      CHANNELS 6 Xposition Yposition Zposition Zrotation Xrotation Yrotation
      JOINT LeftFoot
      {
        OFFSET -2.03811 -42.8489 -5.55045
        CHANNELS 6 Xposition Yposition Zposition Zrotation Xrotation Yrotation
        JOINT LeftToeBase
        {
          OFFSET 2.95501 -5.13629 12.8054
          CHANNELS 6 Xposition Yposition Zposition Zrotation Xrotation Yrotation
          End Site
          {
            OFFSET 0 0 0
          }
        }
      }
    }
  }
  JOINT RightUpLeg
  {
    OFFSET -8.98111 0 0
    CHANNELS 6 Xposition Yposition Zposition Zrotation Xrotation Yrotation
    JOINT RightLeg
    {
      OFFSET 0.875791 -44.0266 -0.648948
      CHANNELS 6 Xposition Yposition Zposition Zrotation Xrotation Yrotation
      JOINT RightFoot
      {
        OFFSET 2.03806 -42.8489 -5.55048
        CHANNELS 6 Xposition Yposition Zposition Zrotation Xrotation Yrotation
        JOINT RightToeBase
        {
          OFFSET -2.95499 -5.13629 12.8054
          CHANNELS 6 Xposition Yposition Zposition Zrotation Xrotation Yrotation
          End Site
          {
            OFFSET 0 0 0
          }
        }
      }
    }
  }
  JOINT Spine
  {
    OFFSET 1.81573e-06 7.02444 -0.908943
    CHANNELS 6 Xposition Yposition Zposition Zrotation Xrotation Yrotation
    JOINT Spine1
    {
      OFFSET 1.81573e-06 7.02444 -0.908943
      CHANNELS 6 Xposition Yposition Zposition Zrotation Xrotation Yrotation
      JOINT Spine2
      {
        OFFSET 1.81573e-06 7.02444 -0.908943
        CHANNELS 6 Xposition Yposition Zposition Zrotation Xrotation Yrotation
        JOINT Spine3
        {
          OFFSET 1.81573e-06 7.02444 -0.908943
          CHANNELS 6 Xposition Yposition Zposition Zrotation Xrotation Yrotation
          JOINT Spine4
          {
            OFFSET 1.81573e-06 7.02444 -0.908943
            CHANNELS 6 Xposition Yposition Zposition Zrotation Xrotation Yrotation
            JOINT Spine5
            {
              OFFSET 1.81573e-06 7.02444 -0.908943
              CHANNELS 6 Xposition Yposition Zposition Zrotation Xrotation Yrotation
              JOINT Spine6
              {
                OFFSET 1.81573e-06 7.02444 -0.908943
                CHANNELS 6 Xposition Yposition Zposition Zrotation Xrotation Yrotation
                JOINT LeftShoulder
                {
                  OFFSET 0 0 0
                  CHANNELS 6 Xposition Yposition Zposition Zrotation Xrotation Yrotation
                  JOINT LeftArm
                  {
                    OFFSET 19.3911 -2.61134e-05 -6.00155e-05
                    CHANNELS 6 Xposition Yposition Zposition Zrotation Xrotation Yrotation
                    JOINT LeftForeArm
                    {
                      OFFSET 28.5888 -0.297887 0.614988
                      CHANNELS 6 Xposition Yposition Zposition Zrotation Xrotation Yrotation
                      JOINT LeftHand
                      {
                        OFFSET 23.5718 0.853671 1.65374
                        CHANNELS 6 Xposition Yposition Zposition Zrotation Xrotation Yrotation
                        End Site
                        {
                          OFFSET 0 0 0
                        }
                      }
                    }
                  }
                }
                JOINT RightShoulder
                {
                  OFFSET 0 0 0
                  CHANNELS 6 Xposition Yposition Zposition Zrotation Xrotation Yrotation
                  JOINT RightArm
                  {
                    OFFSET -19.3911 1.54763e-05 -2.31998e-05
                    CHANNELS 6 Xposition Yposition Zposition Zrotation Xrotation Yrotation
                    JOINT RightForeArm
                    {
                      OFFSET -28.5888 -0.297892 0.614881
                      CHANNELS 6 Xposition Yposition Zposition Zrotation Xrotation Yrotation
                      JOINT RightHand
                      {
                        OFFSET -23.5718 0.853663 1.6537
                        CHANNELS 6 Xposition Yposition Zposition Zrotation Xrotation Yrotation
                        End Site
                        {
                          OFFSET 0 0 0
                        }
                      }
                    }
                  }
                }
                JOINT Neck
                {
                  OFFSET 0 0 0
                  CHANNELS 6 Xposition Yposition Zposition Zrotation Xrotation Yrotation
                  JOINT Head
                  {
                    OFFSET -4.61884e-05 15.9856 2.29875
                    CHANNELS 6 Xposition Yposition Zposition Zrotation Xrotation Yrotation
                    End Site
                    {
                      OFFSET 0 0 0
                    }
                  }
                }
              }
            }
          }
        }
      }
    }
  }
}
MOTION
Frames: 5
Frame Time: 0.02
2088.97 96.1892 -1746.03 4.46456 4.49513 -66.7341 8.98111 0 0 -4.55443 -17.5721 -10.2082 -0.87507 -44.0267 -0.646895 -3.39468e-05 32.0933 2.51686e-05 -2.03811 -42.8489 -5.55045 -0 0 -0 2.95501 -5.13629 12.8054 -0 0 -0 -8.98111 0 0 -15.3778 -17.5054 -20.49 0.875791 -44.0266 -0.648948 -3.77174e-05 78.6528 4.61202e-05 2.03806 -42.8489 -5.55048 -0 0 -0 -2.95499 -5.13629 12.8054 -0 0 -0 1.81573e-06 7.02444 -0.908943 -0.579542 4.77162 2.09468 1.81573e-06 7.02444 -0.908943 -1.34288 5.50719 2.05226 1.81573e-06 7.02444 -0.908943 -1.49492 3.45998 1.82196 1.81573e-06 7.02444 -0.908943 -1.54915 1.76554 1.70021 1.81573e-06 7.02444 -0.908943 -1.05397 0.399255 1.99219 1.81573e-06 7.02444 -0.908943 -0.222158 -0.598113 2.37696 1.81573e-06 7.02444 -0.908943 -0.0297192 -0.0173821 -0.0267331 0 0 0 -5.97146 4.26091 4.88348 19.3911 -2.61134e-05 -6.00155e-05 -62.1251 30.1267 3.18801 28.5888 -0.297887 0.614988 -5.76304e-06 -1.67948e-05 -62.687 23.5718 0.853671 1.65374 -0 0 -0 0 0 0 4.80885 1.6529 -5.19161 -19.3911 1.54763e-05 -2.31998e-05 49.2023 -6.58937 42.3378 -28.5888 -0.297892 0.614881 2.36907e-05 -2.73278e-05 89.8429 -23.5718 0.853663 1.6537 -0 0 -0 0 0 0 -0.0350204 -14.4238 0.258453 -4.61884e-05 15.9856 2.29875 -2.64492 -5.85555 0.689843 
2078.68 97.4968 -1744.08 3.7147 4.72776 -65.8091 8.98111 0 0 -2.88724 -15.7193 -10.06 -0.87507 -44.0267 -0.646895 -3.45609e-05 32.7116 2.53206e-05 -2.03811 -42.8489 -5.55045 -0 0 -0 2.95501 -5.13629 12.8054 -0 0 -0 -8.98111 0 0 -15.9027 -21.5322 -18.8326 0.875791 -44.0266 -0.648948 -3.47064e-05 77.726 4.28766e-05 2.03806 -42.8489 -5.55048 -0 0 -0 -2.95499 -5.13629 12.8054 -0 0 -0 1.81573e-06 7.02444 -0.908943 -0.423763 4.47801 1.94932 1.81573e-06 7.02444 -0.908943 -1.14858 5.38909 1.92712 1.81573e-06 7.02444 -0.908943 -1.32795 3.44638 1.71073 1.81573e-06 7.02444 -0.908943 -1.39104 1.8676 1.58957 1.81573e-06 7.02444 -0.908943 -0.943864 0.595356 1.85415 1.81573e-06 7.02444 -0.908943 -0.209978 -0.425573 2.20761 1.81573e-06 7.02444 -0.908943 -0.0325628 -0.0204613 -0.0259074 0 0 0 -5.71301 4.11913 5.00695 19.3911 -2.61134e-05 -6.00155e-05 -61.3009 31.295 1.78466 28.5888 -0.297887 0.614988 -5.29938e-06 -1.70013e-05 -62.5298 23.5718 0.853671 1.65374 -0 0 -0 0 0 0 5.5473 1.71361 -5.18926 -19.3911 1.54763e-05 -2.31998e-05 48.738 -4.92128 39.2042 -28.5888 -0.297892 0.614881 2.35885e-05 -3.78126e-05 87.63 -23.5718 0.853663 1.6537 -0 0 -0 0 0 0 0.448772 -14.091 0.122943 -4.61884e-05 15.9856 2.29875 -2.88271 -5.30012 0.530584 
2068.35 98.495 -1742.08 2.95625 4.70445 -64.089 8.98111 0 0 -2.48233 -14.439 -10.3376 -0.87507 -44.0267 -0.646895 -3.52849e-05 34.1506 2.57918e-05 -2.03811 -42.8489 -5.55045 -0 0 -0 2.95501 -5.13629 12.8054 -0 0 -0 -8.98111 0 0 -18.4918 -24.1662 -18.2675 0.875791 -44.0266 -0.648948 -3.34933e-05 77.7113 4.19345e-05 2.03806 -42.8489 -5.55048 -0 0 -0 -2.95499 -5.13629 12.8054 -0 0 -0 1.81573e-06 7.02444 -0.908943 -0.387097 4.32184 1.69669 1.81573e-06 7.02444 -0.908943 -1.01862 5.37946 1.65878 1.81573e-06 7.02444 -0.908943 -1.17672 3.44676 1.47198 1.81573e-06 7.02444 -0.908943 -1.21872 1.94279 1.36342 1.81573e-06 7.02444 -0.908943 -0.815115 0.729219 1.59845 1.81573e-06 7.02444 -0.908943 -0.191747 -0.311195 1.90015 1.81573e-06 7.02444 -0.908943 -0.0332446 -0.0249381 -0.0248121 0 0 0 -5.43442 3.97468 5.13009 19.3911 -2.61134e-05 -6.00155e-05 -60.3444 32.4917 0.584214 28.5888 -0.297887 0.614988 -5.11921e-06 -1.70348e-05 -62.4947 23.5718 0.853671 1.65374 -0 0 -0 0 0 0 6.183 1.77658 -5.13155 -19.3911 1.54763e-05 -2.31998e-05 48.133 -2.74545 35.8268 -28.5888 -0.297892 0.614881 2.21474e-05 -4.95862e-05 85.083 -23.5718 0.853663 1.6537 -0 0 -0 0 0 0 0.881941 -13.5776 0.0444604 -4.61884e-05 15.9856 2.29875 -3.07396 -4.87564 0.513872 
2057.94 99.0669 -1740.04 2.43752 4.47487 -62.3128 8.98111 0 0 -2.06149 -13.335 -9.04506 -0.87507 -44.0267 -0.646895 -3.45634e-05 33.4219 2.54388e-05 -2.03811 -42.8489 -5.55045 -0 0 -0 2.95501 -5.13629 12.8054 -0 0 -0 -8.98111 0 0 -20.8813 -26.0622 -17.3968 0.875791 -44.0266 -0.648948 -3.0958e-05 76.7847 3.94691e-05 2.03806 -42.8489 -5.55048 -0 0 -0 -2.95499 -5.13629 12.8054 -0 0 -0 1.81573e-06 7.02444 -0.908943 -0.42877 4.21024 1.44553 1.81573e-06 7.02444 -0.908943 -0.956368 5.35731 1.37553 1.81573e-06 7.02444 -0.908943 -1.07412 3.38317 1.22362 1.81573e-06 7.02444 -0.908943 -1.08028 1.9587 1.12979 1.81573e-06 7.02444 -0.908943 -0.703306 0.803381 1.34107 1.81573e-06 7.02444 -0.908943 -0.168395 -0.23291 1.58993 1.81573e-06 7.02444 -0.908943 -0.0323257 -0.0283485 -0.0237521 0 0 0 -5.07323 3.89917 5.37012 19.3911 -2.61134e-05 -6.00155e-05 -59.815 33.7529 -0.361766 28.5888 -0.297887 0.614988 -5.22252e-06 -1.71605e-05 -62.6104 23.5718 0.853671 1.65374 -0 0 -0 0 0 0 6.69567 1.84463 -5.10167 -19.3911 1.54763e-05 -2.31998e-05 47.5816 -0.17798 32.1309 -28.5888 -0.297892 0.614881 1.87461e-05 -6.25099e-05 82.1411 -23.5718 0.853663 1.6537 -0 0 -0 0 0 0 1.26186 -12.9274 0.0252072 -4.61884e-05 15.9856 2.29875 -3.24221 -4.5216 0.633026 
2047.45 99.1644 -1738.02 2.22072 4.19635 -60.7183 8.98111 0 0 -1.55288 -12.3539 -7.25191 -0.87507 -44.0267 -0.646895 -3.35756e-05 31.7863 2.47943e-05 -2.03811 -42.8489 -5.55045 -0 0 -0 2.95501 -5.13629 12.8054 -0 0 -0 -8.98111 0 0 -22.7173 -27.2638 -16.1881 0.875791 -44.0266 -0.648948 -2.69643e-05 74.9828 3.55286e-05 2.03806 -42.8489 -5.55048 -0 0 -0 -2.95499 -5.13629 12.8054 -0 0 -0 1.81573e-06 7.02444 -0.908943 -0.508335 4.03882 1.25697 1.81573e-06 7.02444 -0.908943 -0.944355 5.27415 1.15105 1.81573e-06 7.02444 -0.908943 -1.02033 3.31391 1.02464 1.81573e-06 7.02444 -0.908943 -0.988259 1.99383 0.941669 1.81573e-06 7.02444 -0.908943 -0.624949 0.911277 1.1399 1.81573e-06 7.02444 -0.908943 -0.150335 -0.13635 1.34766 1.81573e-06 7.02444 -0.908943 -0.0315007 -0.0326408 -0.0224227 0 0 0 -4.77747 3.85226 5.60646 19.3911 -2.61134e-05 -6.00155e-05 -59.2313 35.0206 -1.32059 28.5888 -0.297887 0.614988 -5.43857e-06 -1.73066e-05 -62.7804 23.5718 0.853671 1.65374 -0 0 -0 0 0 0 7.24319 1.95507 -5.19141 -19.3911 1.54763e-05 -2.31998e-05 47.202 2.50318 28.3982 -28.5888 -0.297892 0.614881 1.25883e-05 -7.7264e-05 78.7016 -23.5718 0.853663 1.6537 -0 0 -0 0 0 0 1.60793 -12.3387 0.0705088 -4.61884e-05 15.9856 2.29875 -3.29665 -4.23191 0.928741 
